<?xml version="1.0" encoding="utf-8"?>
<!-- Generator: Adobe Illustrator 18.0.0, SVG Export Plug-In . SVG Version: 6.00 Build 0)  -->
<!DOCTYPE svg PUBLIC "-//W3C//DTD SVG 1.1//EN" "http://www.w3.org/Graphics/SVG/1.1/DTD/svg11.dtd">
<svg version="1.1" id="Layer_1" xmlns="http://www.w3.org/2000/svg" xmlns:xlink="http://www.w3.org/1999/xlink" x="0px" y="0px"
	 width="80.4px" height="41.3px" viewBox="0 0 80.4 41.3" enable-background="new 0 0 80.4 41.3" xml:space="preserve">
<g>
	<path fill="#B8B7B3" d="M37.3,17.4C37.4,9.5,39.3,0,47.5,0c3,0,5.9,2.1,5.9,4.8c0,1.5-0.7,2.6-2.1,3.7c0.5,0.5,1,1,1.4,1.8
		c1.9-1.5,4-2.5,6.1-2.5c4.1,0,7.4,2.7,7.4,6.1c0,2.2-0.8,3.9-4.1,4.3c0.2,0.5,0.3,1.1,0.3,1.8c0,0.5-0.1,0.9-0.2,1.2
		c5.4-2.3,11.6-7.7,16-7.7c1.8,0,2.3,1.3,2.3,2.5c0,5.7-18.4,25.3-37.3,25.3c-15.4,0-13.3-16.9-24.3-16.9C3.7,24.5,0,24.6,0,22.5
		c0-1.8,4.7-2.1,14-2.1c7.4,0,5.2-7.9,13.9-7.9C32.2,12.6,34.7,14.9,37.3,17.4z M42.6,27.8c-0.3,0.5-0.5,0.7-0.8,0.7
		c-0.6,0-0.8-0.4-0.8-0.8c0-0.3,0.7-2,1.8-4.3c-6.4-2.8-8.5-9.2-14.9-9.2c-8.3,0-4.3,7.7-14.7,7.7c-1.2,0-11.8,0.2-11.8,0.6
		c0,0.3,13.9,0.5,17.4,0.5c12.8,0,9.7,16.6,24.4,16.6c18.1,0,35.9-19.6,35.9-23.6c0-0.5-0.3-1-0.9-1c-4.7,0-13.4,8.5-19.8,8.7
		c-0.4,0.1-0.8,0.1-1.2,0.2c0.4,0.7,0.7,1.5,0.7,2.6c0,2.5-1.8,4-4.5,4c-2.3,0-5.2-1.1-5.2-2.1c0-0.6,0.4-0.9,0.7-0.9
		c0.8,0,1.9,1.3,4.5,1.3c1.6,0,2.8-0.8,2.8-2.3c0-2.3-1.6-2.9-1.6-3.5c0-0.9,6.1,0.1,6.1-3c0-1.9-1-2.1-1-2.8c0-1.2,4.9,0.5,4.9-3.3
		c0-2.5-2.6-4.4-5.7-4.4C50.7,9.5,44.7,23.9,42.6,27.8z M25.7,17c1.3,0,2.2,0.8,2.2,1.8c0,1-1,1.7-2.2,1.7c-1.2,0-2.2-0.7-2.2-1.7
		C23.6,17.7,24.5,17,25.7,17z M25.8,19.5c0.6,0,1-0.3,1-0.8c0-0.5-0.5-0.8-1.1-0.8c-0.6,0-1,0.3-1,0.8
		C24.7,19.2,25.2,19.5,25.8,19.5z M43.6,22c1.9-3.4,4.6-7.6,7.7-10.5c0-1.3-2.7-2.1-2.7-2.8c0-1.1,3.1-1.3,3.1-3.8
		c0-1.7-2-3.2-3.9-3.2c-8.3,0-8.9,10.6-8.8,17.2C40.3,20.1,41.8,21.2,43.6,22z"/>
</g>
</svg>
