<?xml version="1.0" encoding="utf-8"?>
<!-- Generator: Adobe Illustrator 18.0.0, SVG Export Plug-In . SVG Version: 6.00 Build 0)  -->
<!DOCTYPE svg PUBLIC "-//W3C//DTD SVG 1.1//EN" "http://www.w3.org/Graphics/SVG/1.1/DTD/svg11.dtd">
<svg version="1.1" id="Layer_1" xmlns="http://www.w3.org/2000/svg" xmlns:xlink="http://www.w3.org/1999/xlink" x="0px" y="0px"
	 width="45.9px" height="41.2px" viewBox="0 0 45.9 41.2" enable-background="new 0 0 45.9 41.2" xml:space="preserve">
<g>
	<path fill="#B8B7B3" d="M13,0.2C18.7,0.2,27.7,0,33.2,0C36,0,38,0.2,38,0.2s1.4,1.6,2.8,3.6c0.5,0.7,0.7,1.5,1.2,2.1
		c1.9,2.8,3.9,5.5,3.9,5.5v1.2c0,0.1-2.7,3.3-6.1,7.7c-3.1,4.1-6.9,9.4-10,13.4c-3.4,4.3-5.9,7.4-5.9,7.4h-1.6c0,0-2.8-3.8-6.3-8.3
		c-1.6-2.1-3.5-4.5-5.4-6.7c-0.2-0.3-0.5-0.4-0.7-0.7l-5-6.1C1.9,15.6,0,12.9,0,12.9v-1c0,0,1.9-2.7,3.8-5.5C4.8,5,5.4,3.6,6.2,2.5
		C7.1,1.2,8,0.2,7.9,0.2H13z M5.7,6.7l-1.1,2l-1.6,2.5h10.5L8.2,3.1L5.7,6.7z M10.7,22.6c4.6,6,9.8,12.7,9.8,12.7s-1.1-3.5-2.1-7.7
		c-0.7-2.5-1.1-5.3-1.8-7.7c-1-3.8-1.9-6.7-1.9-6.7s-1.7,0.1-3.8,0.1c-3.4,0-7.7-0.2-7.6-0.2C3.5,13,6.8,17.6,10.7,22.6z M15.6,10.4
		l1.5-2.3l1.5-1.9l0.3-0.8l2-3.1h-4c-0.8,0-1.6-0.2-2.4-0.2c-2.2,0-4.1,0.2-4.1,0.2l1.3,2.4l1.1,1.3l0.5,0.8L15.6,10.4z M23.1,35.6
		c0,0,1.5-6,3.1-11.8c0.6-2.3,1.4-4.5,1.8-6.4c0.7-2.5,1-4.3,1-4.3L22.9,13l-5.8,0.2L23.1,35.6z M17.6,11.3c0,0,1.8,0.2,3.9,0.2
		c1.6,0,3.5-0.2,4.8-0.2h1.8l-1.5-1.9L26,8l-3.1-4.8l-2,3L17.6,11.3z M26.6,4.8l0.5,0.5l0.7,1l2.5,4l1.9-3.1l0.5-0.8l0.5-0.8
		l2.2-3.5h-1.9c-1.3,0-3,0.2-4.5,0.2c-2.1,0-4.1-0.2-4.1-0.2L26.6,4.8z M29.3,21.2c-0.8,2.8-1.5,6-2.1,8.6c-0.8,3.1-1.5,5.4-1.5,5.4
		s2.1-2.5,4.6-5.8c2.1-2.7,4.4-6.1,6.6-9c3.1-4.1,5.9-7.4,5.9-7.4S38.9,13,35.7,13c-2.4,0-4.4,0.2-4.4,0.2S30.4,16.9,29.3,21.2z
		 M34.2,7.9l-1.9,3.4H37c0.9,0,1.9-0.2,2.8-0.2c1.8,0,3.1,0.2,3.1,0.2l-2.1-3.4l-1.5-2.1l-1.7-2.7l-1.5,2.2L34.2,7.9z"/>
</g>
</svg>
