<?xml version="1.0" encoding="utf-8"?>
<!-- Generator: Adobe Illustrator 18.0.0, SVG Export Plug-In . SVG Version: 6.00 Build 0)  -->
<!DOCTYPE svg PUBLIC "-//W3C//DTD SVG 1.1//EN" "http://www.w3.org/Graphics/SVG/1.1/DTD/svg11.dtd">
<svg version="1.1" id="Layer_1" xmlns="http://www.w3.org/2000/svg" xmlns:xlink="http://www.w3.org/1999/xlink" x="0px" y="0px"
	 width="39.4px" height="28.9px" viewBox="0 0 39.4 28.9" enable-background="new 0 0 39.4 28.9" xml:space="preserve">
<g>
	<path fill="#FFFFFF" d="M37.2,2.2c-2.7-0.1-5.5-0.1-8.3,0c-4.3,0.1-8.5,0.1-12.8,0.3c-0.9,0-1.4-0.3-1.7-1.1
		C14.3,1,14,0.8,13.8,0.5c-0.1,0.1-0.2,0.2-0.2,0.2c0.1,0.2,0.2,0.4,0.3,0.6c0.1,0.3,0.2,0.5,0.3,0.9c-1.7,0.1-1.7,0.1-1.3,1.6
		c0.4,1.7,0.7,3.5,1.2,5.1c0.6,2.1,1.4,4.2,2.2,6.4c0.1,0.3,0.4,0.6,0.4,0.9c-0.2,1.4,0.7,1.2,1.6,1.2c2-0.1,4.1-0.3,6.1-0.4
		c3.9-0.1,7.7-0.2,11.6-0.3c1.5-0.1,2.1-0.9,2-2.4c0-0.2,0-0.5,0-0.7c0.3-2.5,0.6-5,0.9-7.6c0-0.2,0.1-0.4,0.2-0.6
		C39.9,3.8,39,2.2,37.2,2.2z M24.7,8.7c-1.5,1.3-2.9,2.6-4.4,3.8c-0.1-0.1-0.2-0.3-0.4-0.4c1.6-1.1,2.6-3,4.5-3.7
		C24.6,8.5,24.7,8.6,24.7,8.7z M17,6.3c-0.1-0.4-0.4-0.8-0.3-1.1c0.1-0.2,0.6-0.4,0.9-0.5c1.2-0.2,2.4-0.2,3.5-0.3
		C20.3,6.1,18.4,5.5,17,6.3z M17.6,10.3c1.7-1.4,3.1-3.2,5-4.4c0.1,0.2,0.3,0.4,0.4,0.6C20.8,7.1,20.1,9.8,17.6,10.3z M25.8,14.4
		c0.7-0.5,1.4-1.1,2.1-1.6c0.2-0.2,0.5-0.4,0.7-0.4c0.2,0.1,0.4,0.4,0.5,0.6c0,0.2-0.2,0.5-0.4,0.7c-0.1,0.1-0.4,0-0.4,0.1
		c-1.1,2.4-3.2,0.9-4.9,1.3c-0.3,0.1-0.6-0.3-0.9-0.5c-0.3-0.2-0.7-0.4-1.3-0.7c0.1,0.6,0.2,0.8,0.3,1.1c-0.8,0.2-1.6,0.3-2.3,0.5
		c0-0.1-0.1-0.2-0.1-0.3c3.3-1.7,5.4-4.6,8.1-7c1.3-1.1,2.5-2.4,3.8-3.5c0.3-0.3,1-0.1,1.5-0.2c0,0.2,0.1,0.6-0.1,0.7
		c-0.3,0.2-0.6,0.3-1.1,0.4c0.3,0.4,0.5,0.7,0.7,1c0.6-0.4,1.3-0.7,1.8-1.1c1.1-0.9,1.1-0.9,2.5-0.5c-2.4,2-4.8,4.1-7.3,6
		c-1.1,0.9-2.5,1.6-3.7,2.4c-0.3,0.2-0.4,0.6-0.6,0.9C25.1,14.4,25.5,14.6,25.8,14.4z M34.7,13c-0.5,0.2-1,0.5-1.3,0.9
		c-0.9,1.1-2,1.2-3.5,1c0.8-1.5,2-2.3,3.1-3.1c1.1-0.8,2.2-1.7,3.2-2.6C36.7,10.7,36.1,12.3,34.7,13z M33.7,9.9
		c-1.2,0.8-2.3,1.7-3.6,2.7c-0.2-1,3.1-3.9,6.3-5.8C36.3,7.6,34.3,9.5,33.7,9.9z"/>
	<path fill="#FFFFFF" d="M34.5,18.9c-2-0.1-4.1-0.3-6.1-0.2c-3.8,0.2-7.6,0.6-11.4,1c-0.8,0.1-1.2-0.1-1.5-0.9
		c-1.2-3.6-2.4-7.1-3.7-10.6c-0.7-1.9-1.4-3.8-2.1-5.6C9.6,2,9.6,1.4,9.5,0.5C9.1,0.4,8.4,0,7.8,0C5.4,0.2,3,0.6,0.7,0.8
		C0.6,1.2,0.4,1.6,0.2,2.1c-0.5,1.3-0.2,1.7,1.2,1.6c0.6,0,1.2,0.1,1.8,0.1c0.9,0,1.8-0.2,2.8-0.2c0.4,0,1.1,0.2,1.2,0.5
		C8,5.8,8.8,7.5,9.3,9.3c1.2,3.9,2.4,7.8,3.5,11.8c0.2,0.9,0.6,1.1,1.5,0.9c0.4-0.1,0.8,0.2,1.2,0.4c0.5,0.2,1,0.5,1.5,0.4
		c3-0.2,5.9-0.6,8.9-0.8c2.9-0.2,5.8-0.3,8.7-0.3c2,0,2.3-0.1,2.8-1.9C36.7,18.6,35.6,19,34.5,18.9z"/>
	<path fill="#FFFFFF" d="M19.8,24.2c-1,0-1.9,1.2-1.9,2.3c0.1,1.6,1,2.5,2.3,2.4c0.9,0,2.6-1.9,2.6-2.8C22.8,25.3,21,24.1,19.8,24.2
		z"/>
	<path fill="#FFFFFF" d="M33,24.2c-1.4-0.1-2.6,0.8-2.7,1.9c-0.1,1.5,0.6,2.2,2.5,2.3c0.9,0,2.4-1.4,2.5-2.3
		C35.4,25.3,34.1,24.2,33,24.2z"/>
	<path fill="#FFFFFF" d="M31.9,6.6c-0.6,0-1.3-0.1-1.7,0.2c-0.9,0.7-1.7,1.6-2.6,2.5c0.1,0.2,0.3,0.5,0.7,1.4
		C29.5,9.2,30.7,7.9,31.9,6.6z"/>
	<path fill="#FFFFFF" d="M31.9,6.6C31.9,6.6,31.9,6.6,31.9,6.6C31.9,6.6,31.9,6.6,31.9,6.6C31.9,6.6,31.9,6.6,31.9,6.6z"/>
	<path fill="#FFFFFF" d="M27.5,10.7c-1-0.7-4.4,1.6-4.8,3.5c0.8-0.4,1.7-0.6,2-1.1c0.6-0.9,1.4-1.3,2.2-1.8
		C27.1,11.1,27.3,10.9,27.5,10.7z"/>
</g>
</svg>
