<?xml version="1.0" encoding="utf-8"?>
<!-- Generator: Adobe Illustrator 18.0.0, SVG Export Plug-In . SVG Version: 6.00 Build 0)  -->
<!DOCTYPE svg PUBLIC "-//W3C//DTD SVG 1.1//EN" "http://www.w3.org/Graphics/SVG/1.1/DTD/svg11.dtd">
<svg version="1.1" id="Layer_1" xmlns="http://www.w3.org/2000/svg" xmlns:xlink="http://www.w3.org/1999/xlink" x="0px" y="0px"
	 width="50.7px" height="42.1px" viewBox="0 0 50.7 42.1" enable-background="new 0 0 50.7 42.1" xml:space="preserve">
<g>
	<path fill="#B8B7B3" d="M12,20.7c-3.9,0-7.8-0.1-11.6-0.1c-0.5-0.1-0.5-0.7,0-0.8c3.9,0,7.8,0.1,11.6,0.1
		C12.6,20,12.6,20.7,12,20.7z M15.3,26.8c-2.2,1.7-4.6,3.2-6.8,4.9C8,31.9,7.7,31.5,8,31c2.2-1.7,4.6-3.2,6.8-4.9
		C15.3,25.8,15.7,26.4,15.3,26.8z M15.1,15c-1.9-1.5-4.1-2.6-6-4.1c-0.3-0.4,0.1-0.9,0.5-0.6c1.9,1.5,4.1,2.6,6,4.1
		C16,14.7,15.6,15.3,15.1,15z M20.6,31.6c-2,3.5-4,6.9-5.9,10.3c-0.4,0.3-0.9,0-0.7-0.4c2-3.5,4-6.9,5.9-10.3
		C20.3,30.7,20.9,31.1,20.6,31.6z M25.1,11.6c5.2,0,9,4,9,9.2s-4,9.6-9.2,9.6s-9-4-9-9.2S19.9,11.6,25.1,11.6z M20.7,9.9
		c-1.5-2.8-3-5.6-4.5-8.3c-0.2-0.5,0.3-0.8,0.7-0.4c1.5,2.8,3,5.5,4.5,8.3C21.6,9.9,21,10.3,20.7,9.9z M24.9,29.5
		c4.8,0,8.4-4,8.4-8.8c0-4.8-3.4-8.4-8.2-8.4c-4.8,0-8.4,4-8.4,8.8S20.1,29.5,24.9,29.5z M25.6,32.8c-0.2,2.7-0.4,5.3-0.7,8
		c-0.2,0.5-0.7,0.4-0.8-0.1c0.2-2.7,0.4-5.3,0.7-8C24.9,32.1,25.6,32.2,25.6,32.8z M25,9.3c0.2-2.7,0.4-5.3,0.7-8
		c0.2-0.5,0.7-0.4,0.8,0.1c-0.2,2.7-0.4,5.3-0.7,8C25.8,9.9,25,9.9,25,9.3z M30,32.2c1.5,2.8,3,5.6,4.5,8.3c0.2,0.5-0.3,0.8-0.7,0.4
		c-1.5-2.8-3-5.5-4.5-8.3C29.1,32.1,29.7,31.7,30,32.2z M30.1,10.5C32,7,34,3.6,36,0.1c0.4-0.3,0.9,0,0.7,0.4c-2,3.5-4,6.9-5.9,10.3
		C30.4,11.4,29.8,10.9,30.1,10.5z M35.6,27c1.9,1.5,4.1,2.6,6,4.1c0.3,0.4-0.1,0.9-0.5,0.6c-1.9-1.5-4.1-2.6-6-4.1
		C34.6,27.3,35.1,26.7,35.6,27z M35.4,15.3c2.2-1.7,4.6-3.2,6.8-4.9c0.4-0.2,0.8,0.2,0.5,0.6c-2.2,1.7-4.6,3.2-6.8,4.9
		C35.4,16.2,34.9,15.6,35.4,15.3z M38.7,21.3c3.9,0,7.8,0.1,11.6,0.1c0.5,0.1,0.5,0.7,0,0.8c-3.9,0-7.8-0.1-11.6-0.1
		C38.1,22.1,38.1,21.4,38.7,21.3z"/>
</g>
</svg>
