<?xml version="1.0" encoding="utf-8"?>
<!-- Generator: Adobe Illustrator 18.0.0, SVG Export Plug-In . SVG Version: 6.00 Build 0)  -->
<!DOCTYPE svg PUBLIC "-//W3C//DTD SVG 1.1//EN" "http://www.w3.org/Graphics/SVG/1.1/DTD/svg11.dtd">
<svg version="1.1" id="Layer_1" xmlns="http://www.w3.org/2000/svg" xmlns:xlink="http://www.w3.org/1999/xlink" x="0px" y="0px"
	 width="80.8px" height="40.9px" viewBox="0 0 80.8 40.9" enable-background="new 0 0 80.8 40.9" xml:space="preserve">
<g>
	<path fill="#B8B7B3" d="M18.9,14.1c0.9-3.8,3.3-6.9,7.8-6.9c4.2,0,7.4,3.3,7.4,8c0,8.6-6.5,16.1-11.7,22c-1.2,1.3-2.8,3.8-4.9,3.8
		c-1.1,0-2.2-0.7-2.9-1.4C8.3,33.3,0,24.1,0,15.6C0,7.8,3.6,4.2,9.5,4.2C15.3,4.2,18.1,8,18.9,14.1z M17.6,17.8c0-7.2-2.3-12-8.1-12
		c-4.9,0-8,3.1-8,9.8c0,8,8,16.6,13.6,22.4c0.8,0.8,1.7,1.4,2.3,1.4c1.1,0,2.9-2.3,3.8-3.3c4.7-5.4,11.2-13.2,11.2-20.9
		c0-3.8-2.5-6.5-5.9-6.5C22,8.7,20,13,20,17.6c0,2.3-0.4,2.8-1.1,2.8C18.3,20.4,17.6,19.8,17.6,17.8z"/>
	<path fill="#B8B7B3" d="M49.6,9.8c0.7-6,3.2-9.8,8.6-9.8c5.2,0,8.4,3.4,8.4,10.6c0,7-7.6,21.9-14.4,21.9
		c-6.9,0-16.6-13.8-16.6-21.5c0-4.8,2.9-8,6.6-8C46.5,2.9,48.8,6,49.6,9.8z M48.5,13.4c0-4.6-1.8-8.9-6.3-8.9
		c-2.9,0-5.1,2.6-5.1,6.5c0,7.1,9.2,20,15.1,20c5.8,0,12.9-14.1,12.9-20.3c0-6.1-2.6-9-6.8-9c-5.3,0-7.3,4.8-7.3,12
		c0,2.1-0.7,2.6-1.3,2.6C48.9,16.2,48.5,15.7,48.5,13.4z"/>
	<path fill="#B8B7B3" d="M74.9,16c0,2.4-1.5,3.5-3.4,3.5c-1.4,0-3.4-1-3.4-3.5c0-2,2.1-6.7,3.4-6.7C72.8,9.3,74.9,13.9,74.9,16z
		 M69.5,16c0,1.5,1.2,2.2,2,2.2c1.1,0,2.1-0.8,2.1-2.1c0-1.6-1.7-5.2-2-5.2C71.2,10.8,69.5,14.5,69.5,16z M80.8,28.2
		c0,2.1-1.6,3.1-3,3.1c-1.9,0-3.1-1.1-3.1-3.1c0-2.1,1.7-5.6,3-5.6C79.1,22.6,80.8,26.2,80.8,28.2z M76,28.2c0,1.3,0.7,1.8,1.8,1.8
		c0.8,0,1.6-0.6,1.6-1.9c0-1.5-1.1-4.2-1.7-4.2C77.2,24,76,26.6,76,28.2z"/>
</g>
</svg>
