<?xml version="1.0" encoding="utf-8"?>
<!-- Generator: Adobe Illustrator 18.0.0, SVG Export Plug-In . SVG Version: 6.00 Build 0)  -->
<!DOCTYPE svg PUBLIC "-//W3C//DTD SVG 1.1//EN" "http://www.w3.org/Graphics/SVG/1.1/DTD/svg11.dtd">
<svg version="1.1" id="Layer_1" xmlns="http://www.w3.org/2000/svg" xmlns:xlink="http://www.w3.org/1999/xlink" x="0px" y="0px"
	 width="101px" height="29px" viewBox="0 0 101 29" enable-background="new 0 0 101 29" xml:space="preserve">
<g>
	<path fill="#BEBDB9" d="M21,16c-0.6,0-0.7-0.2-0.7-0.7c0-1.2,0.5-2.4,1.1-3.2c-2.7,1.3-5.4,2.8-8.1,4.6c0.4,0.2,0.6,0.6,0.6,1.2
		c0,1.2-2,3.4-3.3,3.4c-0.4,0-0.5-0.4-0.5-0.8c0-0.7,0.1-1.3,0.3-1.8c-3,2.2-5.3,4.2-6.6,5.4c0.1,0.2,0.1,0.5,0.1,0.8
		c0,1.1-2,3.3-3.3,3.3c-0.4,0-0.5-0.4-0.5-0.8c0-2.8,1.6-3.9,2.5-3.9c0.3,0,0.5,0,0.7,0.1C3.9,23,4.8,22.1,6,21.2
		c-1,0-2.3-0.4-2.3-1c0-1,1.9-2.3,3.1-2.3c0.9,0,1.5,0.4,1.6,1.3c2-1.5,4.4-3.2,7.2-4.8c-1.5-0.2-2.8-1.1-2.8-1.5
		c0-0.4,2.1-2.1,4.2-2.1c1.1,0,1.9,0.7,1.9,1.7c2.6-1.4,5.4-2.7,8.5-3.8c-1.7-0.5-3.6-1.7-3.6-3c0-0.8,2.3-0.9,2.8-0.9
		c2.1,0,3.5,1.2,3.5,2.5c0,0.1,0,0.3,0,0.4c3-1,6.3-1.9,9.7-2.5c-2-0.5-4.4-2.4-4.4-3.3c0-0.3,0.2-0.4,0.6-0.4c3.6,0,5.8,1.4,5.8,3
		c0,0.2-0.1,0.3-0.2,0.4c2.5-0.4,5-0.6,7.7-0.6c-1.1-0.7-1.8-2.4-1.8-3.6c0-0.5,0.2-0.8,0.8-0.8c1.6,0,3.1,1.8,3.1,3.9
		c0,0.2,0,0.3-0.1,0.4c2.8,0,5.5,0.3,8.1,0.6c-0.1-0.1-0.1-0.3-0.1-0.4c0-1.7,2.2-3,5.8-3c0.5,0,0.6,0.2,0.6,0.5
		c0,0.9-2.5,2.7-4.4,3.2C64.7,5.8,68,6.7,71,7.7c0-0.1,0-0.2,0-0.4c0-1.3,1.4-2.5,3.5-2.5c0.5,0,2.8,0.1,2.8,0.9c0,1.2-2,2.5-3.6,3
		c3.1,1.2,5.9,2.5,8.5,3.8c0-1,0.8-1.7,1.9-1.7c2.1,0,4.2,1.8,4.2,2.1c0,0.4-1.3,1.3-2.8,1.5c2.8,1.7,5.2,3.3,7.2,4.8
		c0-1,0.6-1.3,1.6-1.3c1.3,0,3.1,1.3,3.1,2.3c0,0.7-1.2,1-2.3,1c1.1,0.9,2.1,1.8,2.7,2.4c0.2-0.1,0.4-0.1,0.7-0.1
		c0.8,0,2.5,1.1,2.5,3.9c0,0.5-0.1,0.8-0.5,0.8c-1.3,0-3.3-2.2-3.3-3.3c0-0.3,0-0.6,0.1-0.8c-1.3-1.2-3.6-3.2-6.6-5.4
		c0.2,0.5,0.3,1.1,0.3,1.8c0,0.5-0.1,0.8-0.5,0.8c-1.3,0-3.3-2.2-3.3-3.4c0-0.6,0.2-1,0.6-1.2c-2.6-1.7-5.3-3.2-8.1-4.6
		c0.6,0.8,1.1,2,1.1,3.2c0,0.4,0,0.7-0.7,0.7c-1.6,0-3.5-1.6-3.5-4.5c0-0.3,0-0.5,0.1-0.7c-2.9-1.3-6.1-2.4-9.4-3.4
		c0.9,0.9,1.8,2.5,1.8,4.1c0,0.3-0.1,0.4-0.4,0.4c-1.7,0-4-2.1-4-4.1c0-0.5,0.1-0.8,0.3-1.1c-2.7-0.6-5.5-1.1-8.4-1.4
		C57.4,6.2,58,7.5,58,8.9c0,0.5-0.1,0.7-0.5,0.7c-2,0-3.4-2-3.4-3.8c0-0.2,0-0.4,0.1-0.5c-1.2-0.1-2.4-0.1-3.6-0.1
		c-1.3,0-2.5,0-3.7,0.1C46.9,5.4,47,5.6,47,5.8c0,1.9-1.4,3.8-3.4,3.8c-0.4,0-0.5-0.2-0.5-0.7c0-1.4,0.5-2.7,1.3-3.5
		c-2.9,0.3-5.7,0.8-8.4,1.4c0.2,0.2,0.4,0.6,0.4,1.1c0,2-2.3,4.1-4,4.1C32,12,32,11.9,32,11.6c0-1.6,0.9-3.2,1.8-4.1
		c-3.4,0.9-6.5,2.1-9.4,3.4c0.1,0.2,0.1,0.4,0.1,0.7C24.5,14.5,22.6,16,21,16z M0.8,27.6c0.6,0,2.3-1.7,2.3-2.5
		c0-0.5-0.2-0.7-0.5-0.7C2,24.3,0.8,25.1,0.8,27.6z M6.9,18.7c-1,0-2.1,0.7-2.3,1.3c0.3,0.1,0.7,0.4,1.6,0.4c0.8,0,1.5-0.4,1.5-1.1
		C7.7,18.9,7.4,18.7,6.9,18.7z M10.8,20.7c0.6,0,2.3-1.7,2.3-2.7c0-0.4-0.2-0.6-0.5-0.6C11.2,17.4,10.8,19.4,10.8,20.7z M17.1,11.5
		c-1.7,0-3.2,1.3-3.2,1.3c0.4,0.3,1.1,0.8,2.3,0.8c0.7,0,2-0.3,2-1.2C18.2,11.9,17.8,11.5,17.1,11.5z M23.8,11.1
		c-0.8,0-2.7,2-2.7,4.1C22.7,15.3,23.8,13.3,23.8,11.1z M26.7,5.6c-1.2,0-1.9,0.3-1.9,0.3c0,0.6,2.3,2.1,4,2.1
		c0.4,0,0.6-0.2,0.6-0.7C29.4,6.3,28.3,5.6,26.7,5.6z M35.3,7.4c-0.8,0-2.6,2.3-2.6,3.8c1,0,2.8-1.8,2.8-3.2
		C35.6,7.6,35.6,7.4,35.3,7.4z M41,4.4c0-0.9-1.9-2-4.6-2.2c0.8,0.9,2.6,2.4,4.3,2.4C40.9,4.6,41,4.5,41,4.4z M45.9,5.4
		c-0.8,0-2.1,1.9-2.1,3.3c1.3,0,2.3-1.5,2.3-2.9C46.2,5.6,46.1,5.4,45.9,5.4z M50.7,3.8c0-1.5-1.3-3.1-2.3-3.1
		c0,1.3,1.1,3.2,2.2,3.2C50.6,3.9,50.7,3.9,50.7,3.8z M57.3,8.7c0-1.4-1.3-3.3-2.1-3.3C55,5.4,55,5.6,55,5.9C55,7.3,56,8.7,57.3,8.7
		z M64.8,2.2c-2.7,0.2-4.6,1.3-4.6,2.2c0,0.2,0.1,0.2,0.4,0.2C62.2,4.6,64,3.1,64.8,2.2z M68.4,11.1c0-1.5-1.8-3.8-2.6-3.8
		c-0.3,0-0.3,0.3-0.3,0.6C65.6,9.4,67.3,11.1,68.4,11.1z M72.4,8c1.7,0,4-1.6,4-2.1c0,0-0.7-0.3-1.9-0.3c-1.6,0-2.7,0.7-2.7,1.7
		C71.8,7.8,72,8,72.4,8z M77.4,11.1c0,2.2,1.1,4.1,2.7,4.1C80.1,13.2,78.1,11.1,77.4,11.1z M84.9,13.6c1.2,0,1.9-0.5,2.3-0.8
		c0,0-1.5-1.3-3.2-1.3c-0.7,0-1.1,0.4-1.1,0.8C82.9,13.3,84.1,13.6,84.9,13.6z M88,18c0,1,1.7,2.7,2.3,2.7c0-0.9-0.4-3.3-1.8-3.3
		C88.2,17.4,88,17.6,88,18z M95,20.4c0.9,0,1.3-0.2,1.6-0.4c-0.2-0.6-1.3-1.3-2.3-1.3c-0.5,0-0.8,0.2-0.8,0.6
		C93.5,20,94.2,20.4,95,20.4z M98,25c0,0.8,1.7,2.5,2.3,2.5c0-2.5-1.2-3.3-1.8-3.3C98.2,24.2,98,24.4,98,25z"/>
</g>
</svg>
