<?xml version="1.0" encoding="utf-8"?>
<!-- Generator: Adobe Illustrator 18.0.0, SVG Export Plug-In . SVG Version: 6.00 Build 0)  -->
<!DOCTYPE svg PUBLIC "-//W3C//DTD SVG 1.1//EN" "http://www.w3.org/Graphics/SVG/1.1/DTD/svg11.dtd">
<svg version="1.1" id="Layer_1" xmlns="http://www.w3.org/2000/svg" xmlns:xlink="http://www.w3.org/1999/xlink" x="0px" y="0px"
	 width="52.9px" height="51.2px" viewBox="0 0 52.9 51.2" enable-background="new 0 0 52.9 51.2" xml:space="preserve">
<g>
	<path fill="#B8B7B3" d="M24.1,31c0,1.2-0.2,5.9-0.2,8.7c0,4.5,5.6,7,9.1,7.3c0.6,0.1,1,0.5,1,1c0,0.4-0.3,0.8-0.9,0.9
		c-1-0.1-2-0.2-2.9-0.4c0.3,0.7,0.5,1.3,0.5,2c0,0.6-0.5,1-1,1c-0.3,0-2.1-3.4-2.1-3.9c-6-3.4-5.6-6.2-5.6-8.7
		c0-2.6,0.1-5.2,0.1-7.8c-1.3-0.5-5.4-1.3-5.4-3.2c0,0.7-13.8,9.4-15.3,10.1c-0.1,0.1-0.4,0.1-0.5,0.1c-0.6,0-1-0.4-1-0.9
		c0-0.3,0.1-0.6,0.5-0.8c8.9-4.6,24.1-18.5,28.4-25.5C31.7,6.2,33.3,0,40.2,0c4,0,7.6,2.5,8.4,6.9c1.5,1,4.3,3.4,4.3,3.9
		c0,0.3-0.3,0.7-3.4,0.7c-0.4,0-1-0.1-1.7-0.1c-2.3,3.8-1.3,8.6-3.8,12c-2.9,4-6.8,6.3-11.2,7.3v0.1c0,2.5-0.1,4.4-0.1,5.9
		c0,4.5,0.8,5.3,7,6.6c0.5,0.1,0.7,0.5,0.7,0.9c0,0.4-0.3,1-0.8,1h-0.1l-1.8-0.4c0.4,1.2,1.2,3.2,1.2,3.4c0,0.5-0.4,0.9-0.9,0.9
		c-1.1,0-2.4-4-2.4-4.9l-1.3-0.5c-2.9-1.2-2.9-2.3-3.2-5.4c-0.1-2.3-0.1-4.8-0.2-7c-1,0.1-2,0.2-2.9,0.2
		C26.6,31.3,25.4,31.2,24.1,31z M46.7,7.1c-0.5-3.4-3.5-5.3-6.6-5.3c-7.4,0-8.4,8.2-11.4,12.5S21.5,23,17.7,26.4c3,1.9,6.9,3,10.8,3
		c5.6,0,11.1-2.2,14-7c2.3-3.7,2.4-7.8,3.9-11.9c0.4-1,2-0.7,2.9-0.8C47,7.4,47.1,8,46.7,7.1z M42.8,5.7c0,1-0.7,1.8-1.6,1.8
		c-1.1,0-1.6-0.8-1.6-1.6c0-0.7,0.6-2,1.5-2C42,3.9,42.8,4.9,42.8,5.7z M33.6,22.4c-1.1,1.3-2.5,2.3-3.7,3.4
		c-1.1,0.5-1.8-0.4-1.2-1.4c1.2-1.1,2.6-2,3.6-3.3C33.2,20.6,34.1,21.3,33.6,22.4z M32.5,17.8c-2.5,2.8-4.2,6.2-6.5,9.3
		c-1,0.9-2-0.2-1.4-1.2c2.3-3,4-6.5,6.5-9.3C32.1,16.1,33,16.7,32.5,17.8z"/>
</g>
</svg>
