<?xml version="1.0" encoding="utf-8"?>
<!-- Generator: Adobe Illustrator 18.0.0, SVG Export Plug-In . SVG Version: 6.00 Build 0)  -->
<!DOCTYPE svg PUBLIC "-//W3C//DTD SVG 1.1//EN" "http://www.w3.org/Graphics/SVG/1.1/DTD/svg11.dtd">
<svg version="1.1" id="Layer_1" xmlns="http://www.w3.org/2000/svg" xmlns:xlink="http://www.w3.org/1999/xlink" x="0px" y="0px"
	 width="105px" height="42.7px" viewBox="0 0 105 42.7" enable-background="new 0 0 105 42.7" xml:space="preserve">
<g>
	<path fill="#B8B7B3" d="M9.3,30.6l-8.8,0.2c-0.3,0-0.5-0.3-0.5-0.5s0.2-0.5,0.5-0.5c20.3,0,60.6-4.2,103.8-29.6
		c0.1,0,0.2-0.1,0.3,0c0.3,0.1,0.4,0.3,0.4,0.5c0,0.2-0.1,0.3-0.2,0.5c-1.8,1.1-3.6,2.1-5.4,3.1c0,4.5-0.3,8.9-0.4,13.7
		c-0.1,0.3-0.3,0.5-0.5,0.5c-0.1,0-0.3-0.1-0.4-0.1c-3.3-2.7-6.5-5.8-9.8-8.4c-2.5,1.2-5,2.3-7.5,3.4c-0.3,4.6-0.9,9.3-1.3,13.9
		c-0.1,0.3-0.3,0.6-0.5,0.6c-0.1,0-0.2-0.1-0.4-0.1c-2.9-3.3-6-6.5-9.1-9.8c-2.4,0.9-4.9,1.7-7.3,2.6c-0.7,4.5-1.7,9.5-2.4,14.1
		c-0.1,0.4-0.3,0.5-0.5,0.5c-0.2,0-0.4-0.1-0.5-0.2c-2.7-3.6-5.9-7-8.7-10.7c-2.4,0.6-4.7,1.2-7.1,1.8c-1.4,4.6-2.8,9.3-4.4,13.9
		c-0.1,0.2-0.3,0.4-0.5,0.4c-0.2,0-0.3-0.1-0.5-0.3c-2.3-3.7-4.9-7.8-7.3-11.4c0,0,0,0,0-0.1c-3.4,0.6-6,1-8.5,1.3l-6,12.9
		c-0.1,0.2-0.3,0.4-0.5,0.4c-0.2,0-0.4-0.1-0.5-0.3C12.9,38.4,11.1,34.6,9.3,30.6z M11,31.7l0.6-1.2c-0.4,0-0.8,0.1-1.2,0.1L11,31.7
		z M12.1,34l1.7-3.7l-1.3,0.1l-1.1,2.3L12.1,34z M13.1,36.3l3-6.2c-0.4,0.1-0.9,0.1-1.3,0.1L12.6,35L13.1,36.3z M14.2,38.7l4.2-8.9
		c-0.4,0-0.9,0.1-1.3,0.1l-3.5,7.4L14.2,38.7z M19.4,29.8l-4.7,10l0.5,1.1l5.3-11.3L19.4,29.8z M32.4,27.9l-1,0.2c0,0,0,0.1,0,0.1
		c0.1,0,0.1,0,0.1,0c0.2,0,0.4,0.2,0.4,0.4c0,0.1,0,0.2-0.1,0.2l0.2,0.4c0.1-0.1,0.2-0.2,0.4-0.2c0.2,0,0.4,0.2,0.4,0.4
		c0,0.2-0.2,0.4-0.4,0.4c0.3,0.4,0.6,0.9,0.9,1.3c0.1,0.1,0.2,0.2,0.2,0.4l0.4,0.6c0.1-0.1,0.2-0.2,0.3-0.2c0.2,0,0.4,0.2,0.4,0.4
		c0,0.2-0.1,0.3-0.3,0.4l1.4,2.2c0.1,0,0.1-0.1,0.2-0.1c0.2,0,0.4,0.2,0.4,0.4c0,0.1-0.1,0.2-0.2,0.3l0.8,1.3c0,0,0.1,0,0.1,0
		c0.2,0,0.4,0.2,0.4,0.4c0,0.1-0.1,0.2-0.1,0.2l0.4,0.6c0-0.1,0.1-0.1,0.2-0.2c0.1-0.2,0.1-0.4,0.2-0.6c-0.1-0.1-0.1-0.2-0.1-0.3
		c0-0.2,0.2-0.4,0.4-0.4l0.1-0.5c-0.2,0-0.3-0.2-0.3-0.4c0-0.2,0.2-0.4,0.4-0.4c0.1,0,0.1,0,0.1,0l1.2-3.8v-0.1
		c0-0.1,0.1-0.2,0.1-0.3l0.2-0.7c-0.1-0.1-0.1-0.2-0.1-0.3c0-0.2,0.1-0.4,0.3-0.4l0.2-0.5c-0.2,0-0.4-0.2-0.4-0.4
		c0-0.2,0.2-0.4,0.4-0.4c0.1,0,0.2,0,0.2,0.1c0.1-0.2,0.1-0.4,0.2-0.6c-0.1,0-0.1,0-0.2,0c-0.2,0-0.4-0.2-0.4-0.4
		c0-0.2,0.2-0.4,0.4-0.4c0.1,0,0.3,0.1,0.3,0.2l0.5-1.4c-0.1,0-0.1,0.1-0.2,0.1c0,0.1,0.1,0.1,0.1,0.2c0,0.2-0.2,0.4-0.4,0.4
		S41,26.4,41,26.2v0c-0.2,0.1-0.4,0.1-0.7,0.1c0.1,0.1,0.2,0.2,0.2,0.4c0,0.2-0.2,0.4-0.4,0.4c-0.2,0-0.4-0.2-0.4-0.4
		c0-0.1,0-0.2,0.1-0.2c-1.2,0.3-2.6,0.5-4.2,0.8c0,0.2-0.2,0.3-0.4,0.3c-0.1,0-0.2-0.1-0.3-0.1c-0.2,0-0.4,0.1-0.6,0.1
		c0,0,0,0.1,0,0.1c0,0.2-0.2,0.4-0.4,0.4c-0.2,0-0.4-0.1-0.4-0.3c-0.2,0.1-0.4,0.1-0.6,0.1c0.1,0.1,0.1,0.2,0.1,0.3
		c0,0.2-0.2,0.4-0.4,0.4c-0.2,0-0.4-0.2-0.4-0.4C32.4,28,32.4,27.9,32.4,27.9z M33.5,29.8c0.2,0,0.4,0.2,0.4,0.4
		c0,0.2-0.2,0.4-0.4,0.4c-0.2,0-0.4-0.2-0.4-0.4C33.1,29.9,33.3,29.8,33.5,29.8z M33.8,28.4c0.2,0,0.4,0.2,0.4,0.4
		c0,0.2-0.2,0.4-0.4,0.4c-0.2,0-0.4-0.2-0.4-0.4C33.4,28.6,33.6,28.4,33.8,28.4z M34.5,30.6c0.2,0,0.4,0.2,0.4,0.4
		c0,0.2-0.2,0.4-0.4,0.4s-0.4-0.2-0.4-0.4C34.1,30.8,34.3,30.6,34.5,30.6z M34.8,29.3c0.2,0,0.4,0.2,0.4,0.4c0,0.2-0.2,0.4-0.4,0.4
		c-0.2,0-0.4-0.2-0.4-0.4C34.4,29.5,34.6,29.3,34.8,29.3z M35,28c0.2,0,0.4,0.2,0.4,0.4c0,0.2-0.2,0.4-0.4,0.4
		c-0.2,0-0.4-0.2-0.4-0.4C34.7,28.2,34.8,28,35,28z M35.4,32.7c0.2,0,0.4,0.2,0.4,0.4c0,0.2-0.2,0.4-0.4,0.4S35,33.4,35,33.1
		C35,32.9,35.1,32.7,35.4,32.7z M35.6,31.5c0.2,0,0.4,0.2,0.4,0.4c0,0.2-0.2,0.4-0.4,0.4c-0.2,0-0.4-0.2-0.4-0.4
		C35.2,31.7,35.4,31.5,35.6,31.5z M35.8,30.1c0.2,0,0.4,0.2,0.4,0.4c0,0.2-0.2,0.4-0.4,0.4c-0.2,0-0.4-0.2-0.4-0.4
		C35.4,30.3,35.5,30.1,35.8,30.1z M36,28.8c0.2,0,0.4,0.2,0.4,0.4c0,0.2-0.2,0.4-0.4,0.4c-0.2,0-0.4-0.2-0.4-0.4
		C35.6,29,35.8,28.8,36,28.8z M36.3,27.5c0.2,0,0.4,0.2,0.4,0.4s-0.2,0.4-0.4,0.4s-0.4-0.2-0.4-0.4S36.1,27.5,36.3,27.5z M36.3,33.6
		c0.2,0,0.4,0.2,0.4,0.4c0,0.2-0.2,0.4-0.4,0.4c-0.2,0-0.4-0.2-0.4-0.4C35.9,33.8,36.1,33.6,36.3,33.6z M36.6,32.3
		c0.2,0,0.4,0.2,0.4,0.4s-0.2,0.4-0.4,0.4c-0.2,0-0.4-0.2-0.4-0.4S36.4,32.3,36.6,32.3z M36.8,31c0.2,0,0.4,0.2,0.4,0.4
		c0,0.2-0.2,0.4-0.4,0.4c-0.2,0-0.4-0.2-0.4-0.4C36.5,31.2,36.6,31,36.8,31z M37.1,29.7c0.2,0,0.4,0.2,0.4,0.4
		c0,0.2-0.2,0.4-0.4,0.4s-0.4-0.2-0.4-0.4C36.7,29.9,36.9,29.7,37.1,29.7z M37.4,28.5c0.2,0,0.4,0.2,0.4,0.4c0,0.2-0.2,0.4-0.4,0.4
		c-0.2,0-0.4-0.2-0.4-0.4C37,28.7,37.1,28.5,37.4,28.5z M37.4,35.6c0.2,0,0.4,0.2,0.4,0.4c0,0.2-0.2,0.4-0.4,0.4
		c-0.2,0-0.4-0.2-0.4-0.4C37,35.8,37.2,35.6,37.4,35.6z M37.4,34.5c0.2,0,0.4,0.2,0.4,0.4c0,0.2-0.2,0.4-0.4,0.4
		c-0.2,0-0.4-0.2-0.4-0.4C37,34.6,37.2,34.5,37.4,34.5z M37.6,27.1c0.2,0,0.4,0.2,0.4,0.4c0,0.2-0.2,0.4-0.4,0.4s-0.4-0.2-0.4-0.4
		C37.2,27.3,37.4,27.1,37.6,27.1z M37.7,33.2c0.2,0,0.4,0.2,0.4,0.4c0,0.2-0.2,0.4-0.4,0.4c-0.2,0-0.4-0.2-0.4-0.4
		C37.3,33.4,37.4,33.2,37.7,33.2z M37.9,31.9c0.2,0,0.4,0.2,0.4,0.4c0,0.2-0.2,0.4-0.4,0.4s-0.4-0.2-0.4-0.4
		C37.6,32.1,37.7,31.9,37.9,31.9z M38.2,30.6c0.2,0,0.4,0.2,0.4,0.4c0,0.2-0.2,0.4-0.4,0.4c-0.2,0-0.4-0.2-0.4-0.4
		C37.8,30.8,38,30.6,38.2,30.6z M38.3,29.3c0.2,0,0.4,0.2,0.4,0.4c0,0.2-0.2,0.4-0.4,0.4c-0.2,0-0.4-0.2-0.4-0.4
		C38,29.5,38.1,29.3,38.3,29.3z M38.6,28c0.2,0,0.4,0.2,0.4,0.4c0,0.2-0.2,0.4-0.4,0.4c-0.2,0-0.4-0.2-0.4-0.4
		C38.2,28.2,38.4,28,38.6,28z M38.7,34c0.2,0,0.4,0.2,0.4,0.4c0,0.2-0.2,0.4-0.4,0.4c-0.2,0-0.4-0.2-0.4-0.4
		C38.3,34.2,38.4,34,38.7,34z M38.9,26.7c0.2,0,0.4,0.2,0.4,0.4c0,0.2-0.2,0.4-0.4,0.4c-0.2,0-0.4-0.2-0.4-0.4
		C38.5,26.9,38.7,26.7,38.9,26.7z M38.9,32.7c0.2,0,0.4,0.2,0.4,0.4c0,0.2-0.2,0.4-0.4,0.4c-0.2,0-0.4-0.2-0.4-0.4
		C38.5,32.9,38.7,32.7,38.9,32.7z M39.2,31.4c0.2,0,0.4,0.2,0.4,0.4c0,0.2-0.2,0.4-0.4,0.4c-0.2,0-0.4-0.2-0.4-0.4
		C38.8,31.6,39,31.4,39.2,31.4z M39.4,30.1c0.2,0,0.4,0.2,0.4,0.4c0,0.2-0.2,0.4-0.4,0.4c-0.2,0-0.4-0.2-0.4-0.4
		C39,30.3,39.2,30.1,39.4,30.1z M39.6,28.8c0.2,0,0.4,0.2,0.4,0.4c0,0.2-0.2,0.4-0.4,0.4c-0.2,0-0.4-0.2-0.4-0.4
		C39.2,29,39.4,28.8,39.6,28.8z M39.9,27.6c0.2,0,0.4,0.2,0.4,0.4c0,0.2-0.2,0.4-0.4,0.4c-0.2,0-0.4-0.2-0.4-0.4
		C39.5,27.7,39.6,27.6,39.9,27.6z M52.5,24.9l0.3-1.8l-1.5,0.4C51.7,24,52.1,24.5,52.5,24.9z M54.1,27l0.8-4.5l-1.2,0.4l-0.6,3
		L54.1,27z M55.8,29.1l1.3-7.2l-1.2,0.4l-1,5.7L55.8,29.1z M57.4,31.1l1.7-9.8c-0.4,0.1-0.8,0.2-1.2,0.4L56.5,30L57.4,31.1z
		 M60.1,20.9L58.2,32l0.8,1c0.7-3.9,1.5-8.4,2.1-12.3L60.1,20.9z M79.7,14.1c0-0.1,0-0.3,0-0.4c-2.8,1.2-5.7,2.3-8.6,3.4
		c0.1,0.1,0.2,0.2,0.2,0.4s-0.1,0.3-0.2,0.3l0.5,0.5c0.1-0.1,0.2-0.2,0.4-0.2c0.2,0,0.4,0.2,0.4,0.4c0,0.2-0.1,0.3-0.2,0.4l0.4,0.4
		c0-0.2,0.2-0.4,0.4-0.4c0.2,0,0.4,0.2,0.4,0.4s-0.2,0.4-0.4,0.4l2.8,3c0.2,0,0.4,0.2,0.4,0.4l0.6,0.6c0.1-0.1,0.2-0.2,0.4-0.2
		c0.2,0,0.4,0.2,0.4,0.4c0,0.2-0.1,0.3-0.2,0.4l0.5,0.6v-0.1c0-0.2,0.2-0.4,0.4-0.4c0.2,0,0.4,0.2,0.4,0.4c0,0.2-0.2,0.4-0.4,0.4H78
		l0.6,0.6c0.2-2.4,0.5-4.7,0.7-7.1c-0.1,0.1-0.2,0.1-0.2,0.1c-0.2,0-0.4-0.2-0.4-0.4c0-0.2,0.2-0.4,0.4-0.4c0.1,0,0.2,0.1,0.3,0.2
		l0.1-0.7c-0.1,0-0.1,0-0.2,0c-0.2,0-0.4-0.2-0.4-0.4c0-0.2,0.2-0.4,0.4-0.4c0.1,0,0.2,0.1,0.2,0.1c0-0.2,0-0.4,0.1-0.6h-0.1
		c-0.2,0-0.4-0.2-0.4-0.4s0.2-0.4,0.4-0.4c0,0,0.1,0,0.1,0c0-0.2,0-0.4,0-0.5c-0.1-0.1-0.2-0.2-0.2-0.4
		C79.3,14.3,79.5,14.1,79.7,14.1z M72.1,16.7c0.2,0,0.4,0.2,0.4,0.4s-0.2,0.4-0.4,0.4c-0.2,0-0.4-0.2-0.4-0.4S71.9,16.7,72.1,16.7z
		 M73.1,17.6c0.2,0,0.4,0.2,0.4,0.4c0,0.2-0.2,0.4-0.4,0.4s-0.4-0.2-0.4-0.4C72.7,17.8,72.9,17.6,73.1,17.6z M73.4,16.3
		c0.2,0,0.4,0.2,0.4,0.4c0,0.2-0.2,0.4-0.4,0.4c-0.2,0-0.4-0.2-0.4-0.4C73,16.5,73.2,16.3,73.4,16.3z M73.9,19.7
		c0.2,0,0.4,0.2,0.4,0.4s-0.2,0.4-0.4,0.4c-0.2,0-0.4-0.2-0.4-0.4S73.7,19.7,73.9,19.7z M74.1,18.4c0.2,0,0.4,0.2,0.4,0.4
		c0,0.2-0.2,0.4-0.4,0.4c-0.2,0-0.4-0.2-0.4-0.4C73.7,18.6,73.9,18.4,74.1,18.4z M74.4,17.1c0.2,0,0.4,0.2,0.4,0.4
		c0,0.2-0.2,0.4-0.4,0.4c-0.2,0-0.4-0.2-0.4-0.4C74,17.3,74.1,17.1,74.4,17.1z M74.6,15.8c0.2,0,0.4,0.2,0.4,0.4
		c0,0.2-0.2,0.4-0.4,0.4c-0.2,0-0.4-0.2-0.4-0.4C74.2,16,74.4,15.8,74.6,15.8z M74.9,20.5c0.2,0,0.4,0.2,0.4,0.4s-0.2,0.4-0.4,0.4
		s-0.4-0.2-0.4-0.4S74.7,20.5,74.9,20.5z M75.2,19.3c0.2,0,0.4,0.2,0.4,0.4c0,0.2-0.2,0.4-0.4,0.4c-0.2,0-0.4-0.2-0.4-0.4
		C74.8,19.5,75,19.3,75.2,19.3z M75.3,17.9c0.2,0,0.4,0.2,0.4,0.4c0,0.2-0.2,0.4-0.4,0.4S75,18.6,75,18.3
		C75,18.1,75.1,17.9,75.3,17.9z M75.6,16.7c0.2,0,0.4,0.2,0.4,0.4c0,0.2-0.2,0.4-0.4,0.4s-0.4-0.2-0.4-0.4
		C75.2,16.9,75.4,16.7,75.6,16.7z M75.9,15.4c0.2,0,0.4,0.2,0.4,0.4c0,0.2-0.2,0.4-0.4,0.4s-0.4-0.2-0.4-0.4
		C75.5,15.5,75.7,15.4,75.9,15.4z M75.9,21.4c0.2,0,0.4,0.2,0.4,0.4c0,0.2-0.2,0.4-0.4,0.4c-0.2,0-0.4-0.2-0.4-0.4
		C75.5,21.6,75.7,21.4,75.9,21.4z M76.2,20.1c0.2,0,0.4,0.2,0.4,0.4c0,0.2-0.2,0.4-0.4,0.4c-0.2,0-0.4-0.2-0.4-0.4
		C75.8,20.3,76,20.1,76.2,20.1z M76.4,18.8c0.2,0,0.4,0.2,0.4,0.4c0,0.2-0.2,0.4-0.4,0.4c-0.2,0-0.4-0.2-0.4-0.4
		C76,19,76.2,18.8,76.4,18.8z M76.7,17.5c0.2,0,0.4,0.2,0.4,0.4c0,0.2-0.2,0.4-0.4,0.4c-0.2,0-0.4-0.2-0.4-0.4
		C76.3,17.7,76.5,17.5,76.7,17.5z M76.9,16.3c0.2,0,0.4,0.2,0.4,0.4c0,0.2-0.2,0.4-0.4,0.4c-0.2,0-0.4-0.2-0.4-0.4
		C76.6,16.5,76.7,16.3,76.9,16.3z M77,22.3c0.2,0,0.4,0.2,0.4,0.4c0,0.2-0.2,0.4-0.4,0.4s-0.4-0.2-0.4-0.4
		C76.6,22.5,76.8,22.3,77,22.3z M77.2,15c0.2,0,0.4,0.2,0.4,0.4s-0.2,0.4-0.4,0.4c-0.2,0-0.4-0.2-0.4-0.4S77,15,77.2,15z M77.2,21
		c0.2,0,0.4,0.2,0.4,0.4c0,0.2-0.2,0.4-0.4,0.4c-0.2,0-0.4-0.2-0.4-0.4C76.9,21.2,77,21,77.2,21z M77.5,19.7c0.2,0,0.4,0.2,0.4,0.4
		c0,0.2-0.2,0.4-0.4,0.4c-0.2,0-0.4-0.2-0.4-0.4C77.1,19.9,77.3,19.7,77.5,19.7z M77.8,18.4c0.2,0,0.4,0.2,0.4,0.4s-0.2,0.4-0.4,0.4
		c-0.2,0-0.4-0.2-0.4-0.4S77.5,18.4,77.8,18.4z M77.9,17.1c0.2,0,0.4,0.2,0.4,0.4c0,0.2-0.2,0.4-0.4,0.4c-0.2,0-0.4-0.2-0.4-0.4
		C77.5,17.3,77.7,17.1,77.9,17.1z M78.2,15.8c0.2,0,0.4,0.2,0.4,0.4c0,0.2-0.2,0.4-0.4,0.4s-0.4-0.2-0.4-0.4
		C77.8,16,78,15.8,78.2,15.8z M78.2,21.8c0.2,0,0.4,0.2,0.4,0.4c0,0.2-0.2,0.4-0.4,0.4c-0.2,0-0.4-0.2-0.4-0.4
		C77.9,22,78,21.8,78.2,21.8z M78.3,23.1c0.2,0,0.4,0.2,0.4,0.4c0,0.2-0.2,0.4-0.4,0.4s-0.4-0.2-0.4-0.4
		C77.9,23.3,78.1,23.1,78.3,23.1z M78.5,14.5c0.2,0,0.4,0.2,0.4,0.4c0,0.2-0.2,0.4-0.4,0.4s-0.4-0.2-0.4-0.4
		C78.1,14.7,78.2,14.5,78.5,14.5z M78.5,20.5c0.2,0,0.4,0.2,0.4,0.4s-0.2,0.4-0.4,0.4c-0.2,0-0.4-0.2-0.4-0.4S78.3,20.5,78.5,20.5z
		 M78.8,19.2c0.2,0,0.4,0.2,0.4,0.4c0,0.2-0.2,0.4-0.4,0.4c-0.2,0-0.4-0.2-0.4-0.4C78.4,19.4,78.5,19.2,78.8,19.2z M90.4,10.1
		l0.1-1.3l-1,0.5L90.4,10.1z M92.4,11.8l0.1-4l-1.1,0.5l-0.1,2.5C91.6,11.2,92,11.5,92.4,11.8z M94.3,13.5l0.2-6.8l-1.1,0.6
		l-0.1,5.3L94.3,13.5z M96.2,15.2l0.2-9.5l-1.1,0.6l-0.2,8L96.2,15.2z M97.3,5.3L97.1,16c0.3,0.2,0.6,0.5,0.9,0.7
		c0.1-4,0.3-7.9,0.4-12L97.3,5.3z"/>
</g>
</svg>
