<?xml version="1.0" encoding="utf-8"?>
<!-- Generator: Adobe Illustrator 18.0.0, SVG Export Plug-In . SVG Version: 6.00 Build 0)  -->
<!DOCTYPE svg PUBLIC "-//W3C//DTD SVG 1.1//EN" "http://www.w3.org/Graphics/SVG/1.1/DTD/svg11.dtd">
<svg version="1.1" id="Layer_1" xmlns="http://www.w3.org/2000/svg" xmlns:xlink="http://www.w3.org/1999/xlink" x="0px" y="0px"
	 width="74.1px" height="41.7px" viewBox="0 0 74.1 41.7" enable-background="new 0 0 74.1 41.7" xml:space="preserve">
<g>
	<path fill="#B8B7B3" d="M5.3,20.9c0-0.8-3.3-0.2-4.7-2.9C0.2,17.3,0,16.6,0,15.8c0-1.7,0.9-3.4,2.3-4.5c-0.4-0.5-0.7-1.3-0.7-2
		c0-4.1,2.1-5.8,5.1-5.8c5.1,0,5.8,2.7,6.3,5c3.3,0.3,6.9,1.1,6.9,5.3c0,0.8-2.3,6.6-5.5,6.7c-0.8,0-4.2,20.8-4.8,21.1
		C9,41.7,5.3,21.8,5.3,20.9z M11.1,16.7c0-2.5-1.6-6.1-4.8-5.8c-2.7,0.3-4.9,0.9-4.9,4.9c0,3.4,4.1,4.3,5.9,4.3
		C9.8,20.2,11.1,19.9,11.1,16.7z M11.7,8.6c-0.3-2.2-2.2-4-4.7-4c-2.5,0-4.5,2.2-4.5,4.2c0,0.7,0.2,1.3,0.7,1.9
		C4.7,9.9,6.2,9.4,7.8,10C8.9,9.1,10.3,8.7,11.7,8.6z M6.7,21.4C8.6,26.9,8.6,33,9.4,38.7c0.7-5.7,2-11.4,3-17.2
		C10.5,21.4,8.6,21.4,6.7,21.4z M11.8,19.2c1.4,1.6,6.7-1.7,6.7-5.6c0-4.2-6.6-4.5-9.5-3C11.7,12.5,13,15.8,11.8,19.2z"/>
	<path fill="#B8B7B3" d="M35.6,6.9c0.6-1.8,2-3.3,5.9-3.3c3,0,5.1,1.7,5.1,5.8c0,0.6-0.3,1.4-0.7,2c1.3,1.1,2.3,2.8,2.3,4.5
		c0,0.8-0.2,1.5-0.6,2.3c-1.4,2.7-4.7,2-4.7,2.9c0,0.8-3.7,20.8-4.2,20.8c-0.6-0.3-4.1-21.1-4.8-21.1c-3.2,0-5.6-4.7-5.5-6.7
		c0.2-3.2,2.2-4.4,4.2-5c-2.1-0.8-2-4.5,0.3-4.9c-0.6-1.9-3.6-2.9-5.3-2.1c-0.9,0.4-1,0.7-1.7,1.5c-0.6,0.3-1.2-0.2-0.9-0.9
		c2.2-2.4,5.5-2.9,8-0.4c0.5,0.4,1.1,1.1,1.2,1.8C35.4,4.4,35.9,5.4,35.6,6.9z M29.6,13.7c0,3.9,5.3,7.2,6.7,5.6
		c-1.2-3.4,0.1-6.7,2.8-8.6C36.2,9.2,29.6,9.5,29.6,13.7z M44.8,10.6c0.5-0.5,0.7-1.2,0.7-1.9c0-2-2-4.2-4.5-4.2
		c-2.4,0-4.3,1.7-4.7,4c1.4,0.1,2.8,0.5,4,1.4C42,9.4,43.5,9.9,44.8,10.6z M46.8,15.9c0-4.1-2.3-4.7-4.9-4.9
		c-3.2-0.3-4.8,3.3-4.8,5.8c0,3.2,1.3,3.5,3.9,3.5C42.7,20.2,46.8,19.2,46.8,15.9z"/>
	<path fill="#B8B7B3" d="M57.8,22L57.8,22c-3.2-0.6-4.8-2.6-4.8-4.9c0-7.8,11.5-4.8,11.5-12.9c0-1.8-0.9-2.2-0.9-3.1
		c0-0.4,0.3-1,0.8-1c0.8,0,0.9,1.4,1.3,2.2c2.3,4.9,8.4,5.4,8.4,11.7c0,3.3-3.3,7.9-7.5,8.1c-0.6,4.7-4.3,19.4-4.8,19.7
		C61.5,41.7,58.5,26.2,57.8,22z M59.5,11.8c-2.3,0.9-5.2,1.6-5.2,4.9c0,2.4,2,4.5,4.4,3.6c-2-2.5-1.5-5.4,1.2-7.1
		c1.7-1.1,7.7-3.3,7.7-6c0-1-0.8-1.9-1.8-3.4C65.8,8.3,64,10.1,59.5,11.8z M66.4,12.7c1.7-1.3,3.6-2.8,2.5-5.1
		c-0.4,2.9-5,4.8-7.1,5.9c-3.1,1.7-5,3.9,0,7.1C60.1,17.1,63.9,14.6,66.4,12.7z M64.9,20.3c-0.8-1.1,0.6-2.8,1.3-3.7
		c1.7-2.1,5.3-3.6,4.2-6.9c-0.6,3-4.9,4.5-6.6,6.6C62.6,17.8,62.8,19.8,64.9,20.3z M71.8,9.8c1.2,4-4.6,6.2-5.9,10.3
		c3.6,2.6,7-3.5,7-6.7C72.9,12.2,72.4,11.1,71.8,9.8z"/>
</g>
</svg>
