<?xml version="1.0" encoding="utf-8"?>
<!-- Generator: Adobe Illustrator 18.0.0, SVG Export Plug-In . SVG Version: 6.00 Build 0)  -->
<!DOCTYPE svg PUBLIC "-//W3C//DTD SVG 1.1//EN" "http://www.w3.org/Graphics/SVG/1.1/DTD/svg11.dtd">
<svg version="1.1" id="Layer_1" xmlns="http://www.w3.org/2000/svg" xmlns:xlink="http://www.w3.org/1999/xlink" x="0px" y="0px"
	 width="66.2px" height="41.4px" viewBox="0 0 66.2 41.4" enable-background="new 0 0 66.2 41.4" xml:space="preserve">
<g>
	<path fill="#B8B7B3" d="M5.7,14.7c1.1-3.1,5.7-12,9.1-14c1-0.6,3.1-0.7,4.1-0.7c1.7,0,2.9,0.6,4.7,1.4C27,3.1,28.9,4.5,28.9,8
		c0,1.3-2.8,5.7-4,7.8c-2.1,3.6-4,7.2-6.4,10.7c-0.8,1.1-1.2,4.1-3.3,4.1c-2.2,0-4.2-1.3-5.8-1.8c-0.7,1.7-1.6,3.4-2.6,4.9
		C5.6,35.6,5.2,40,2.2,40C1,40,0,39.1,0,37.6c0-2.9,4.4-7.2,5.2-10.8C3.6,25.9,1,24.1,1,22.6C2.6,20.1,4.7,17.5,5.7,14.7z M6.2,27.4
		c-0.9,3.2-4.9,7.8-4.9,10.3c0,1,0.4,1,0.9,1c1.3,0,2.3-2.4,2.7-3.6c0.8-2.4,2.3-4.5,3.3-6.8C7.5,28,6.9,27.7,6.2,27.4z M2.4,22.5
		c1.1,2.9,11,6.8,12.8,6.8c1.4,0,1.7-2.5,2.4-3.5c0.6-0.9,1.3-1.6,1.8-2.5c2-3.4,3.9-7,5.8-10.5c0.6-1.1,2.5-4.1,2.5-5.4
		c0-1.1-0.8-2.4-1.7-3.4c-0.8-0.8-4.7-2.9-7.3-2.9c-0.7,0-2.2,0.3-3.1,0.6c-2,0.8-5.7,7.4-6.9,10.1c-0.6,1.4-1.3,2.9-2,4.3
		C5.5,18.1,3.8,21,2.4,22.5z"/>
	<path fill="#B8B7B3" d="M38.1,22.1C41.2,15.9,50.2,0,54.7,0C55,0,58.5,0.6,59,0.9c2.6,1,7.2,3.7,7.2,7c0,4.5-2.9,7.8-5,11.7
		c-0.5,1.3-1,2.2-1.8,3.4c-1,1.7-2.8,7.1-4.9,8.5c-0.3,0.2-0.7,0.3-1.1,0.3c-1,0-2.1-0.4-3-0.8c-0.9,2.4-3.8,10.4-6.3,10.4
		c-1.1,0-2.2-0.6-2.2-1.6c0-1.4,1.7-4.7,2.7-6.5c0.4-0.9,1.4-2.9,1.9-4c-1.1-0.5-1.8-0.7-3.1-1.4c-1.2,2.2-3.3,5.7-4.5,8.2
		c-0.6,1.1-1.7,1.8-2.4,1.8c-1,0-2-0.6-2-1.6c0-0.6,0.3-1.5,0.6-2.4c1-2.2,3.1-5.7,4.6-8.4C38.9,24.8,37.4,23.5,38.1,22.1z
		 M40.6,26.3c-1.7,3.1-3.7,6.9-4.3,8.3c-0.3,0.6-0.5,1.3-0.5,1.7s0.2,0.6,0.6,0.6c0.4,0,1.1-0.2,1.6-1c1.2-2.1,3.1-5.9,4.4-8.5
		C42,27.2,40.8,26.5,40.6,26.3z M39.2,22.6c0,3.6,13.5,7.9,14,7.9c1.5,0,2.1-2.7,2.8-3.8c1-1.5,1.4-3,2.3-4.3
		c2.6-4.3,6.7-11.9,6.7-13.9c0-2.8-3.8-5.7-6.6-6.5c-0.6-0.2-2.4-0.8-3-0.8c-2.9,0-6.6,5.5-8.2,8.2C44.5,13.8,42.1,17,39.2,22.6z
		 M47.6,29.9c-0.7,1.5-1.3,3.1-2,4.3c-1.5,2.7-2.4,4.7-2.4,5.5c0,0.4,0.6,0.6,0.9,0.6c1.5,0,4-6.8,5.4-9.7
		C49,30.4,48.2,30.2,47.6,29.9z M55.2,5c0.3,0,0.6,0.3,0.6,0.6c0,0.1,0,0.3-0.1,0.4l-6.4,10.8c-0.9,1.5-2.7,5.6-3.3,5.6
		c-0.3,0-0.6-0.3-0.6-0.7c0-0.1,0-0.1,0.1-0.3c2.6-5.9,6.2-10.7,9.1-16.2C54.9,5.1,55,5,55.2,5z M60,7.6c0.3,0,0.8,0.4,0.4,0.8
		c-0.3,0.4-2.8,4.9-3.8,6.4c-1.1,1.8-2,3.9-3.2,5.7c-1,1.5-2.7,4.4-2.9,4.4c-0.3,0-0.6-0.3-0.6-0.7c0.4-1.5,1.3-2.7,2.4-4.4
		c1.1-1.8,2-3.9,3.2-5.7c1.4-2.2,2.7-4.3,3.8-6.2C59.6,7.7,59.8,7.6,60,7.6z"/>
</g>
</svg>
