<?xml version="1.0" encoding="utf-8"?>
<!-- Generator: Adobe Illustrator 18.0.0, SVG Export Plug-In . SVG Version: 6.00 Build 0)  -->
<!DOCTYPE svg PUBLIC "-//W3C//DTD SVG 1.1//EN" "http://www.w3.org/Graphics/SVG/1.1/DTD/svg11.dtd">
<svg version="1.1" id="Layer_1" xmlns="http://www.w3.org/2000/svg" xmlns:xlink="http://www.w3.org/1999/xlink" x="0px" y="0px"
	 width="71.8px" height="42px" viewBox="0 0 71.8 42" enable-background="new 0 0 71.8 42" xml:space="preserve">
<g>
	<path fill="#B8B7B3" d="M39.3,42c-0.2,0-0.3-0.1-0.3-0.2c0-0.2,0.2-0.4,0.4-0.6c0.7-0.9,5.5-6.1,7.7-10.3
		C34.8,20.3,35.7,1.3,14.9,1.3C5.1,1.3,1.5,7.9,1.5,16.2c0,8,5.1,14.9,17.7,14.9c3.5,0,7.1-1.6,9.5-7.2c-2.1-0.7-4.5-4.4-4.5-6.2
		c0-0.8,0.3-1.6,1.1-1.6c2.2,0,1.1,3.5,3.4,5.9c0.1-3.2,1.8-5,2.7-5c0.4,0,0.7,0.3,0.7,0.9c0,0.9-0.6,2.5-2.1,4.8
		c1.2-0.3,3.4-0.8,4.5-0.8c0.8,0,1.5,0.8,1.5,1.6c0,0.8-0.6,1.1-2.3,1.1c-1.1,0-2.5-0.2-3.7-0.4c-2.5,6.7-8,8.3-11.1,8.3
		C5.7,32.6,0,24.9,0,16.4C0,5.6,5.3,0,15.2,0c21.3,0,20.5,18.8,32.6,29.5c3.3-5.9,7.8-11.9,14.8-11.9c3.2,0,9.2,2.2,9.2,8.3
		c0,7.7-7.2,9.4-12.1,9.4c-3.9,0-8-1.2-11.6-3.8C43.1,39.9,40.2,42,39.3,42z M62.5,18.9c-6.3,0-10.5,6.3-13.7,11.4
		c2.5,2.1,6.1,3.6,10.3,3.6c4.9,0,11.3-1.1,11.3-8C70.5,22,66.4,18.9,62.5,18.9z"/>
</g>
</svg>
