<?xml version="1.0" encoding="utf-8"?>
<!-- Generator: Adobe Illustrator 18.0.0, SVG Export Plug-In . SVG Version: 6.00 Build 0)  -->
<!DOCTYPE svg PUBLIC "-//W3C//DTD SVG 1.1//EN" "http://www.w3.org/Graphics/SVG/1.1/DTD/svg11.dtd">
<svg version="1.1" id="Layer_1" xmlns="http://www.w3.org/2000/svg" xmlns:xlink="http://www.w3.org/1999/xlink" x="0px" y="0px"
	 width="208px" height="5.9px" viewBox="0 0 208 5.9" enable-background="new 0 0 208 5.9" xml:space="preserve">
<g>
	<path fill="#8742D2" d="M4.8,5.9c2.1,0,3.5-3.3,5.5-3.3c2.5,0,3.2,2.9,6.5,2.9c2.9,0,2.4-2.9,5.3-2.9c2.8,0,2.5,2.9,4.8,2.9
		c2.6,0,3.7-3.1,6.4-3.1c2.6,0,2.7,3.4,4.8,3.4c0,0,0.1,0,0.1,0c0,0,0,0,0.1,0c1.7,0,1.8-3.2,4.8-3.2c2.3,0,3.1,3.4,5.5,3.4
		c2.1,0,3.5-3.3,5.5-3.3c2.5,0,3.2,2.9,6.5,2.9c2.9,0,2.4-2.9,5.3-2.9c2.8,0,2.5,2.9,4.8,2.9c2.6,0,3.7-3.1,6.4-3.1
		c2.6,0,2.7,3.4,4.8,3.4c0,0,0.1,0,0.1,0c0,0,0,0,0.1,0c1.7,0,1.8-3.2,4.8-3.2c2.3,0,3.1,3.4,5.5,3.4c2.1,0,3.5-3.3,5.5-3.3
		c2.5,0,3.2,2.9,6.5,2.9c2.9,0,2.4-2.9,5.3-2.9c2.8,0,2.5,2.9,4.8,2.9c2.6,0,3.7-3.1,6.4-3.1c2.6,0,2.7,3.4,4.8,3.4
		c0.1,0,0.1,0,0.2,0c0,0,0.1,0,0.1,0c1.7,0,1.8-3.2,4.8-3.2c2.3,0,3.1,3.4,5.5,3.4c2.1,0,3.5-3.3,5.5-3.3c2.5,0,3.2,2.9,6.5,2.9
		c2.9,0,2.4-2.9,5.3-2.9c2.8,0,2.5,2.9,4.8,2.9c2.6,0,3.7-3.1,6.4-3.1c2.6,0,2.7,3.4,4.8,3.4c0,0,0.1,0,0.1,0c0,0,0,0,0.1,0
		c1.7,0,1.8-3.2,4.8-3.2c2.3,0,3.1,3.4,5.5,3.4c2.1,0,3.5-3.3,5.5-3.3c2.5,0,3.2,2.9,6.5,2.9c2.9,0,2.4-2.9,5.3-2.9
		c2.8,0,2.5,2.9,4.8,2.9c2.5,0,3.7-2.9,6.1-3.1V0H0v2.7C1.8,3.3,2.7,5.9,4.8,5.9z"/>
</g>
</svg>
