<?xml version="1.0" encoding="utf-8"?>
<!-- Generator: Adobe Illustrator 18.0.0, SVG Export Plug-In . SVG Version: 6.00 Build 0)  -->
<!DOCTYPE svg PUBLIC "-//W3C//DTD SVG 1.1//EN" "http://www.w3.org/Graphics/SVG/1.1/DTD/svg11.dtd">
<svg version="1.1" id="Layer_1" xmlns="http://www.w3.org/2000/svg" xmlns:xlink="http://www.w3.org/1999/xlink" x="0px" y="0px"
	 width="24.4px" height="27.6px" viewBox="0 0 24.4 27.6" enable-background="new 0 0 24.4 27.6" xml:space="preserve">
<g>
	<path fill="#FFFFFF" d="M24.4,24.6C24.4,24.6,24.4,24.6,24.4,24.6c-0.5-1.6-1.8-2.7-2.7-4.2c-0.1-0.2-0.5-0.4-0.6-0.6
		c-1.3-1.6-2.6-3.2-3.9-4.7c-0.6-0.6-0.8-1,0-1.6c0.4-0.3,0.7-0.8,0.7-1.2c0.2-2,0.9-3.9-0.1-6.1c-0.9-1.9-1.6-3.7-3.7-4.8
		C10.4-0.3,6.2-1,3,2.4C2,3.5,0.4,4.2,0.4,6.1c0,1.1-0.2,2.2-0.3,3.2c-0.2,2.8,1.3,4.9,3.1,6.6c2.3,2.3,5.5,2.7,8.7,2.3
		c0.5-0.1,1.1,0.2,1.6,0.6c0.4,0.3,0.7,0.8,1,1.3c0.9,1,1.8,2,2.6,3l0,0c1.3,1.7,2.3,2.9,3.7,4.1c1.1,0.9,2.2,0.2,3-0.4
		C24.2,26.4,24.6,25.2,24.4,24.6z M9.9,4.3C9.8,4.5,9.6,4.7,9.5,4.9L7.1,5.7L5.8,6.4C5.5,6.4,5.3,6.3,5,6.1C6.1,4.5,8.8,3.5,9.9,4.3
		z M4.2,7.2L4,7.4c0-0.1,0-0.1,0.1-0.2C4.1,7.2,4.2,7.2,4.2,7.2z M3.2,9.5c0.1-0.3,0.2-0.6,0.3-0.9l1.2-0.5c0,0,0,0,0,0
		c0,0,0.1,0,0.1-0.1l1.6-0.6l4.2-2.1c0.1,0,0.2,0,0.3-0.1c0.8-0.3,1.6-0.1,1.9,0.7C12.9,6,13,6.2,13.1,6.4L8.3,8.1l-4.3,2.3
		C3.3,10.3,3,10.1,3.2,9.5z M4.2,11.4c1.5-0.7,3-1.4,4.5-2.2l3-1.3L13.4,7c0.2,0.4,0.3,0.7,0.5,1.1L9.7,9.5l-2.4,1.3
		c-1,0.4-1.9,0.8-2.9,1.1C4.4,11.8,4.3,11.6,4.2,11.4z M5.4,12.7l3.6-1.5l4.5-2l0.6-0.7c0.2,0.5,0.5,1.1,0.7,1.6l-3.1,1.1l-2.4,1.3
		c-0.6,0-1.2,0.2-1.5,0.8l-0.8,0.4c-0.6-0.3-1.1-0.6-1.7-0.9C5.3,12.8,5.3,12.8,5.4,12.7z M9.7,14.5c-0.4-0.1-0.7-0.4-1-0.7l1.2-0.5
		c0.1,0,0.2,0,0.2,0c0,0,0-0.1,0.1-0.1L11,13l4-2c0,0.2,0,0.4-0.1,0.5C14.3,13.2,11.5,14.9,9.7,14.5z"/>
</g>
</svg>
