<?xml version="1.0" encoding="utf-8"?>
<!-- Generator: Adobe Illustrator 18.0.0, SVG Export Plug-In . SVG Version: 6.00 Build 0)  -->
<!DOCTYPE svg PUBLIC "-//W3C//DTD SVG 1.1//EN" "http://www.w3.org/Graphics/SVG/1.1/DTD/svg11.dtd">
<svg version="1.1" id="Layer_1" xmlns="http://www.w3.org/2000/svg" xmlns:xlink="http://www.w3.org/1999/xlink" x="0px" y="0px"
	 width="44.1px" height="41.6px" viewBox="0 0 44.1 41.6" enable-background="new 0 0 44.1 41.6" xml:space="preserve">
<g>
	<path fill="#B8B7B3" d="M27,22.3c2.3,0.8,4.6,1.8,6.9,2.3c4,0.9,10.1-0.1,10.1,6.8c0,5.2-2.3,10.1-8.2,10.1
		c-9.4,0-10.7-10.5-12-16.8l-2.9,3.6l-0.4,0.8c-2.1,4.8-4.2,10.2-11,10.2c-4.4,0-8.6-2.5-8.6-6.6C1,26,8.3,25.2,13.7,24l-0.1,0.1
		c1.7-0.5,3.2-0.9,4.9-1.5c-2.6,0.2-5.4,0.6-8.1,0.6c-4.7,0-10.4-3-10.4-8.2C0,9,7.8,2.7,13.8,3.9c1.7,0.3,6.5,10.8,8.9,14.6
		c1.8-4.2,0.8-9.2,3.1-13.3c2-3.7,5.2-5.2,8-5.2c4.8,0,9.5,4,9.5,8.8c0,3.9-4,8.4-7.9,10.8C32.7,21.2,30,22,27,22.3z M11.2,21.1
		c3,0,6-0.7,10-0.7c-2.4-3.4-7-13.5-8.3-14.3c-4.4-1.7-10.3,4.6-10.3,9C2.7,19.1,7.4,21.1,11.2,21.1z M21.4,24
		c-1.4,0.6-2.8,1-4.2,1.5C13.1,26.7,6.8,26.7,4,30.4c-3.2,4,3,6.9,6.6,6.9c5.3,0,6.3-6.9,8.5-10C19.8,26.1,20.6,25,21.4,24z
		 M8.9,16.8c-1.4,0-2.5-1.4-2.5-2.7c0-0.6,1.4-2.9,2.9-2.9c1.4,0,2.2,1.6,2.2,3C11.5,15.7,10.5,16.8,8.9,16.8z M9.7,30.5
		c0.9,0,2.1,1.3,2.1,2.4c0,0.7-0.8,2.2-2.9,2.2c-0.6,0-1.7-0.6-1.7-1.7C7.3,32.5,8.3,30.5,9.7,30.5z M24.7,20.3
		c3.5-0.3,6.5-0.8,9.6-2.8c2.2-1.4,6.7-4.9,6.7-8.4c0-3.3-3.3-7-6.8-7c-2.3,0-4.8,1.4-6.3,4.3C25.5,10.7,26.9,16.5,24.7,20.3z
		 M26.4,24.6c3.4,7.7-0.9,13.3,10.9,14.6c2.9-0.3,4.4-4.1,4.4-7.5C41.7,23.7,30.5,28.7,26.4,24.6z M36.1,9.5c0,1.6-1.3,2.4-2.7,2.4
		c-1.3,0-3-0.9-3-3.2c0-1.6,1-2.1,2.1-2.1C34.2,6.5,36.1,7.5,36.1,9.5z M32.7,33.1c0-1.4,1.6-2.3,2.4-2.3c1,0,1.6,1.1,1.6,2
		c0,1.3-0.9,2.9-1.8,2.9C33.8,35.7,32.7,34.2,32.7,33.1z"/>
</g>
</svg>
