<?xml version="1.0" encoding="utf-8"?>
<!-- Generator: Adobe Illustrator 18.0.0, SVG Export Plug-In . SVG Version: 6.00 Build 0)  -->
<!DOCTYPE svg PUBLIC "-//W3C//DTD SVG 1.1//EN" "http://www.w3.org/Graphics/SVG/1.1/DTD/svg11.dtd">
<svg version="1.1" id="Layer_1" xmlns="http://www.w3.org/2000/svg" xmlns:xlink="http://www.w3.org/1999/xlink" x="0px" y="0px"
	 width="11.8px" height="612.5px" viewBox="390 -0.1 11.8 612.5" enable-background="new 390 -0.1 11.8 612.5" xml:space="preserve"
	>
<path fill="#FFFFFF" d="M393.7,0c2.3-0.4,2.3,1.2,4.6,0.8c-1.5,8.5-1.9,18.2-3.1,25.2C385.5,23.2,392.1,6.2,393.7,0z"/>
<path fill="#FFFFFF" d="M392.1,121.6c6.6,3.9,9.7,13.6,9.7,20.9c-1.2,0-2.3,0-2.3,0.8C392.1,140.2,391.7,128.6,392.1,121.6z"/>
<path fill="#FFFFFF" d="M395.2,41.8c4.6,6.6,3.9,20.5,5.4,27.5c-8.1,3.5-7.7-6.2-8.1-9.7C392.5,53.8,389.8,44.5,395.2,41.8z"/>
<path fill="#FFFFFF" d="M394.5,85.2c5.8,3.9,7.7,19.8,3.9,24.8C389.8,108.5,392.9,91.4,394.5,85.2z"/>
<path fill="#FFFFFF" d="M393.7,156.5c2.3-0.4,2.3,1.2,4.6,0.8c-1.5,8.5-1.9,18.2-3.1,25.6C385.5,179.7,392.1,162.7,393.7,156.5z"/>
<path fill="#FFFFFF" d="M392.1,278.1c6.6,3.9,9.7,13.6,9.7,20.9c-1.2,0-2.3,0-2.3,0.8C392.1,296.7,391.7,285.1,392.1,278.1z"/>
<path fill="#FFFFFF" d="M395.2,198.3c4.6,6.6,3.9,20.5,5.4,27.5c-8.1,3.5-7.7-6.2-8.1-9.7C392.5,210.3,389.8,201,395.2,198.3z"/>
<path fill="#FFFFFF" d="M394.5,241.7c5.8,3.9,7.7,19.8,3.9,24.8C389.8,264.9,392.9,247.9,394.5,241.7z"/>
<path fill="#FFFFFF" d="M393.7,312.6c2.3-0.4,2.3,1.2,4.6,0.8c-1.5,8.5-1.9,18.2-3.1,25.6C385.5,335.4,392.1,318.4,393.7,312.6z"/>
<path fill="#FFFFFF" d="M392.1,434.2c6.6,3.9,9.7,13.6,9.7,20.9c-1.2,0-2.3,0-2.3,0.8C392.1,452.8,391.7,441.2,392.1,434.2z"/>
<path fill="#FFFFFF" d="M395.2,354c4.6,6.6,3.9,20.5,5.4,27.5c-8.1,3.5-7.7-6.2-8.1-9.7C392.5,366.4,389.8,356.7,395.2,354z"/>
<path fill="#FFFFFF" d="M394.5,397.8c5.8,3.9,7.7,19.8,3.9,24.8C389.8,420.7,392.9,404,394.5,397.8z"/>
<path fill="#FFFFFF" d="M393.7,469.1c2.3-0.4,2.3,1.2,4.6,0.8c-1.5,8.5-1.9,18.2-3.1,25.6C385.5,491.9,392.1,474.9,393.7,469.1z"/>
<path fill="#FFFFFF" d="M392.1,590.7c6.6,3.9,9.7,13.6,9.7,20.9c-1.2,0-2.3,0-2.3,0.8C392.1,609.3,391.7,597.7,392.1,590.7z"/>
<path fill="#FFFFFF" d="M395.2,510.5c4.6,6.6,3.9,20.5,5.4,27.5c-8.1,3.5-7.7-6.2-8.1-9.7C392.5,522.9,389.8,513.2,395.2,510.5z"/>
<path fill="#FFFFFF" d="M394.5,554.3c5.8,3.9,7.7,19.8,3.9,24.8C389.8,577.1,392.9,560.1,394.5,554.3z"/>
</svg>
