<?xml version="1.0" encoding="utf-8"?>
<!-- Generator: Adobe Illustrator 18.0.0, SVG Export Plug-In . SVG Version: 6.00 Build 0)  -->
<!DOCTYPE svg PUBLIC "-//W3C//DTD SVG 1.1//EN" "http://www.w3.org/Graphics/SVG/1.1/DTD/svg11.dtd">
<svg version="1.1" id="Layer_1" xmlns="http://www.w3.org/2000/svg" xmlns:xlink="http://www.w3.org/1999/xlink" x="0px" y="0px"
	 width="24.4px" height="24.5px" viewBox="0 0 24.4 24.5" enable-background="new 0 0 24.4 24.5" xml:space="preserve">
<path fill="#FFFFFF" d="M0,0v24.5h24.4V0H0z M18.9,11.9C17.3,18.1,7,20.8,2.3,14.3c1.8,1.7,5,1.9,7-0.2c-1.2,0.2-2-1-0.6-1.6
	c-1.3,0.1-2-0.6-2.3-1.1c0.3-0.3,0.6-0.5,1.3-0.5c-1.4-0.3-1.9-1-2.1-1.9c0.4-0.1,0.9-0.2,1.2-0.1C5.5,8.2,5,7.2,5.1,6.5
	C7.3,7.3,8.7,8,9.9,8.6c0.4,0.2,0.9,0.6,1.4,1.2C12,8,12.9,6.1,14.3,5.2c0,0.2-0.1,0.4-0.3,0.6C14.4,5.4,15,5.1,15.5,5
	c-0.1,0.4-0.6,0.6-1,0.8c0.3-0.1,1.7-0.7,1.8-0.4c0.2,0.4-1,0.6-1.2,0.7c-0.1,0-0.3,0.1-0.4,0.2c1.8-0.2,3.5,1.3,4,3.1
	c0,0.1,0.1,0.3,0.1,0.4c0.7,0.2,1.8,0,2.2-0.2c-0.3,0.7-1,1.1-2.1,1.2c0.5,0.2,1.5,0.3,2.1,0.2C20.7,11.5,20,11.9,18.9,11.9z"/>
</svg>
